<?xml version="1.0" encoding="UTF-8" standalone="no"?>
<!-- Created with Inkscape (http://www.inkscape.org/) -->

<svg
   xmlns:dc="http://purl.org/dc/elements/1.1/"
   xmlns:cc="http://creativecommons.org/ns#"
   xmlns:rdf="http://www.w3.org/1999/02/22-rdf-syntax-ns#"
   xmlns:svg="http://www.w3.org/2000/svg"
   xmlns="http://www.w3.org/2000/svg"
   xmlns:sodipodi="http://sodipodi.sourceforge.net/DTD/sodipodi-0.dtd"
   xmlns:inkscape="http://www.inkscape.org/namespaces/inkscape"
   width="55"
   height="53"
   viewBox="0 0 14.552083 14.022917"
   version="1.1"
   id="svg8"
   sodipodi:docname="lungs_white.svg"
   inkscape:version="0.92.1 r15371">
  <defs
     id="defs2">
    <inkscape:path-effect
       effect="bspline"
       id="path-effect6823"
       is_visible="true"
       weight="33.333333"
       steps="2"
       helper_size="0"
       apply_no_weight="true"
       apply_with_weight="true"
       only_selected="false" />
    <inkscape:path-effect
       only_selected="false"
       apply_with_weight="true"
       apply_no_weight="true"
       helper_size="0"
       steps="2"
       weight="33.333333"
       is_visible="true"
       id="path-effect6827"
       effect="bspline" />
    <inkscape:path-effect
       effect="bspline"
       id="path-effect6823-7"
       is_visible="true"
       weight="33.333333"
       steps="2"
       helper_size="0"
       apply_no_weight="true"
       apply_with_weight="true"
       only_selected="false" />
    <inkscape:path-effect
       only_selected="false"
       apply_with_weight="true"
       apply_no_weight="true"
       helper_size="0"
       steps="2"
       weight="33.333333"
       is_visible="true"
       id="path-effect6827-7"
       effect="bspline" />
    <pattern
       y="0"
       x="0"
       height="6"
       width="6"
       patternUnits="userSpaceOnUse"
       id="EMFhbasepattern" />
  </defs>
  <sodipodi:namedview
     id="base"
     pagecolor="#ffffff"
     bordercolor="#666666"
     borderopacity="1.0"
     inkscape:pageopacity="0.0"
     inkscape:pageshadow="2"
     inkscape:zoom="5.6"
     inkscape:cx="-0.73163518"
     inkscape:cy="23.598035"
     inkscape:document-units="mm"
     inkscape:current-layer="layer1"
     showgrid="false"
     units="px"
     inkscape:window-width="1366"
     inkscape:window-height="705"
     inkscape:window-x="-8"
     inkscape:window-y="-8"
     inkscape:window-maximized="1" />
  <metadata
     id="metadata5">
    <rdf:RDF>
      <cc:Work
         rdf:about="">
        <dc:format>image/svg+xml</dc:format>
        <dc:type
           rdf:resource="http://purl.org/dc/dcmitype/StillImage" />
        <dc:title></dc:title>
      </cc:Work>
    </rdf:RDF>
  </metadata>
  <g
     inkscape:label="Layer 1"
     inkscape:groupmode="layer"
     id="layer1"
     transform="translate(0,-282.97709)">
    <path
       id="path4534"
       d="m 6.7356631,283.07829 h 1.171972 v 5.81874 h -1.171972 z"
       style="fill:#ffffff;fill-opacity:1;fill-rule:nonzero;stroke:none;stroke-width:0.26458332"
       inkscape:connector-curvature="0" />
    <path
       id="path4536"
       d="m 6.3244448,292.84472 c 0,-1.29533 0,-3.88601 -0.020561,-5.28415 -0.02056,-1.39814 -0.082244,-1.62432 -0.2261699,-1.85048 -0.1439265,-0.24673 -0.3700963,-0.51403 -0.5962666,-0.69907 -0.2467309,-0.18505 -0.493462,-0.30842 -0.7607537,-0.34954 -0.2878529,-0.0411 -0.5757056,0 -1.0074849,0.24673 -0.4317791,0.26729 -1.0074848,0.71964 -1.459825,1.21309 -0.4523401,0.49347 -0.7607538,1.00749 -1.0691675,1.56264 -0.28785276,0.5757 -0.57570556,1.21309 -0.76075379,2.07665 -0.16448702,0.88412 -0.24673064,1.97385 -0.24673064,2.98133 0,1.00749 0.0822436,1.91216 0.18504818,2.52899 0.0822436,0.61684 0.18504822,0.94581 0.2672919,1.15141 0.0822436,0.20561 0.14392638,0.2673 0.43177915,0.2673 0.2878528,-0.0206 0.7607538,-0.10281 1.5009469,-0.3701 0.719632,-0.24674 1.7065558,-0.67851 2.3645051,-1.02804 0.6373884,-0.34954 0.9663629,-0.61683 1.1308504,-0.80188 0.1850481,-0.18505 0.2261699,-0.26729 0.2467307,-0.30841 0.020561,-0.0411 0.020561,-0.0411 0.020561,-1.33647 z"
       style="fill:#ffffff;fill-opacity:1;fill-rule:nonzero;stroke:none;stroke-width:0.26458332"
       inkscape:connector-curvature="0" />
    <path
       id="path4538"
       d="m 5.563691,289.53441 -3.8243302,1.89161 z"
       style="fill:none;fill-opacity:1;fill-rule:nonzero;stroke:#1a1a1a;stroke-width:0.26458332"
       inkscape:connector-curvature="0" />
    <path
       id="path4540"
       d="m 5.563691,289.53441 -3.8243302,1.89161"
       style="fill:none;stroke:#1a1a1a;stroke-width:0.31749764px;stroke-linecap:round;stroke-linejoin:miter;stroke-miterlimit:4;stroke-dasharray:none;stroke-opacity:1"
       inkscape:connector-curvature="0" />
    <path
       id="path4544"
       d="m 3.3019903,290.74751 0.020561,1.43926 -0.699071,0.61683"
       style="fill:none;stroke:#1a1a1a;stroke-width:0.31749764px;stroke-linecap:round;stroke-linejoin:miter;stroke-miterlimit:4;stroke-dasharray:none;stroke-opacity:1"
       inkscape:connector-curvature="0" />
    <path
       id="path4546"
       d="m 3.3225512,292.18677 0.6990711,0.53459 z"
       style="fill:none;fill-opacity:1;fill-rule:nonzero;stroke:#1a1a1a;stroke-width:0.26458332"
       inkscape:connector-curvature="0" />
    <path
       id="path4548"
       d="m 3.3225512,292.18677 0.6990711,0.53459"
       style="fill:none;stroke:#1a1a1a;stroke-width:0.31749764px;stroke-linecap:round;stroke-linejoin:miter;stroke-miterlimit:4;stroke-dasharray:none;stroke-opacity:1"
       inkscape:connector-curvature="0" />
    <path
       id="path4550"
       d="m 2.4178711,291.09705 -0.760754,-0.7402 z"
       style="fill:none;fill-opacity:1;fill-rule:nonzero;stroke:#1a1a1a;stroke-width:0.26458332"
       inkscape:connector-curvature="0" />
    <path
       id="path4552"
       d="m 2.4178711,291.09705 -0.760754,-0.7402"
       style="fill:none;stroke:#1a1a1a;stroke-width:0.31749764px;stroke-linecap:round;stroke-linejoin:miter;stroke-miterlimit:4;stroke-dasharray:none;stroke-opacity:1"
       inkscape:connector-curvature="0" />
    <path
       id="path4554"
       d="M 4.4739624,290.04844 2.7674065,288.79423 Z"
       style="fill:none;fill-opacity:1;fill-rule:nonzero;stroke:#1a1a1a;stroke-width:0.26458332"
       inkscape:connector-curvature="0" />
    <path
       id="path4556"
       d="M 4.4739624,290.04844 2.7674065,288.79423"
       style="fill:none;stroke:#1a1a1a;stroke-width:0.31749764px;stroke-linecap:round;stroke-linejoin:miter;stroke-miterlimit:4;stroke-dasharray:none;stroke-opacity:1"
       inkscape:connector-curvature="0" />
    <path
       id="path4558"
       d="m 3.610404,289.34937 0.082244,-1.00748 z"
       style="fill:none;fill-opacity:1;fill-rule:nonzero;stroke:#1a1a1a;stroke-width:0.26458332"
       inkscape:connector-curvature="0" />
    <path
       id="path4560"
       d="m 3.610404,289.34937 0.082244,-1.00748"
       style="fill:none;stroke:#1a1a1a;stroke-width:0.31749764px;stroke-linecap:round;stroke-linejoin:miter;stroke-miterlimit:4;stroke-dasharray:none;stroke-opacity:1"
       inkscape:connector-curvature="0" />
    <path
       id="path4562"
       d="m 8.1749269,292.84472 c 0,-1.29533 0,-3.88601 0.020561,-5.28415 0.041122,-1.39814 0.082244,-1.62432 0.2261699,-1.85048 0.1439265,-0.24673 0.3700966,-0.51403 0.5962665,-0.69907 0.246731,-0.18505 0.493462,-0.30842 0.7813149,-0.34954 0.2672908,-0.0411 0.5551438,0 0.9869238,0.24673 0.452339,0.26729 1.028046,0.71964 1.459824,1.21309 0.45234,0.49347 0.781316,1.00749 1.069168,1.56264 0.308413,0.5757 0.575706,1.21309 0.760754,2.07665 0.185048,0.88412 0.246731,1.97385 0.246731,2.98133 0,1.00749 -0.08225,1.91216 -0.164487,2.52899 -0.102805,0.61684 -0.185049,0.94581 -0.287854,1.15141 -0.08224,0.20561 -0.143926,0.2673 -0.431778,0.2673 -0.267293,-0.0206 -0.760754,-0.10281 -1.500947,-0.3701 -0.719632,-0.24674 -1.706556,-0.67851 -2.3645049,-1.02804 -0.6373883,-0.34954 -0.9458022,-0.61683 -1.1308503,-0.80188 -0.1850482,-0.18505 -0.2261701,-0.26729 -0.2467309,-0.30841 -0.020561,-0.0411 -0.020561,-0.0411 -0.020561,-1.33647 z"
       style="fill:#ffffff;fill-opacity:1;fill-rule:nonzero;stroke:none;stroke-width:0.26458332"
       inkscape:connector-curvature="0" />
    <path
       id="path4564"
       d="m 8.9356809,289.53441 3.8243291,1.89161 z"
       style="fill:none;fill-opacity:1;fill-rule:nonzero;stroke:#1a1a1a;stroke-width:0.26458332"
       inkscape:connector-curvature="0" />
    <path
       id="path4566"
       d="m 8.9356809,289.53441 3.8243291,1.89161"
       style="fill:none;stroke:#1a1a1a;stroke-width:0.31749764px;stroke-linecap:round;stroke-linejoin:miter;stroke-miterlimit:4;stroke-dasharray:none;stroke-opacity:1"
       inkscape:connector-curvature="0" />
    <path
       id="path4570"
       d="m 11.197381,290.74751 -0.02056,1.43926 0.699071,0.61683"
       style="fill:none;stroke:#1a1a1a;stroke-width:0.31749764px;stroke-linecap:round;stroke-linejoin:miter;stroke-miterlimit:4;stroke-dasharray:none;stroke-opacity:1"
       inkscape:connector-curvature="0" />
    <path
       id="path4572"
       d="m 11.17682,292.18677 -0.699072,0.53459 z"
       style="fill:none;fill-opacity:1;fill-rule:nonzero;stroke:#1a1a1a;stroke-width:0.26458332"
       inkscape:connector-curvature="0" />
    <path
       id="path4574"
       d="m 11.17682,292.18677 -0.699072,0.53459"
       style="fill:none;stroke:#1a1a1a;stroke-width:0.31749764px;stroke-linecap:round;stroke-linejoin:miter;stroke-miterlimit:4;stroke-dasharray:none;stroke-opacity:1"
       inkscape:connector-curvature="0" />
    <path
       id="path4576"
       d="m 12.0815,291.09705 0.760754,-0.7402 z"
       style="fill:none;fill-opacity:1;fill-rule:nonzero;stroke:#1a1a1a;stroke-width:0.26458332"
       inkscape:connector-curvature="0" />
    <path
       id="path4578"
       d="m 12.0815,291.09705 0.760754,-0.7402"
       style="fill:none;stroke:#1a1a1a;stroke-width:0.31749764px;stroke-linecap:round;stroke-linejoin:miter;stroke-miterlimit:4;stroke-dasharray:none;stroke-opacity:1"
       inkscape:connector-curvature="0" />
    <path
       id="path4580"
       d="m 10.025409,290.04844 1.706556,-1.25421 z"
       style="fill:none;fill-opacity:1;fill-rule:nonzero;stroke:#1a1a1a;stroke-width:0.26458332"
       inkscape:connector-curvature="0" />
    <path
       id="path4582"
       d="m 10.025409,290.04844 1.706556,-1.25421"
       style="fill:none;stroke:#1a1a1a;stroke-width:0.31749764px;stroke-linecap:round;stroke-linejoin:miter;stroke-miterlimit:4;stroke-dasharray:none;stroke-opacity:1"
       inkscape:connector-curvature="0" />
    <path
       id="path4584"
       d="m 10.909528,289.34937 -0.102804,-1.00748 z"
       style="fill:none;fill-opacity:1;fill-rule:nonzero;stroke:#1a1a1a;stroke-width:0.26458332"
       inkscape:connector-curvature="0" />
    <path
       id="path4586"
       d="m 10.909528,289.34937 -0.102804,-1.00748"
       style="fill:none;stroke:#1a1a1a;stroke-width:0.31749764px;stroke-linecap:round;stroke-linejoin:miter;stroke-miterlimit:4;stroke-dasharray:none;stroke-opacity:1"
       inkscape:connector-curvature="0" />
    <path
       id="path4588"
       d="m 6.2833229,289.57554 c 0.67851,-0.45234 1.3364593,-0.49346 1.9327259,0 v -0.71963 c -0.6168274,-0.55515 -1.2747767,-0.34954 -1.9327259,0 z"
       style="fill:#ffffff;fill-opacity:1;fill-rule:nonzero;stroke:none;stroke-width:0.26458332"
       inkscape:connector-curvature="0" />
  </g>
</svg>
